<svg width="126" height="26" viewBox="0 0 126 26" fill="none" xmlns="http://www.w3.org/2000/svg">
<path d="M5.22567 25.3325V2.93252L7.67567 5.38252H0.325673V0.832518H10.8957V25.3325H5.22567ZM23.0967 25.7525C21.3934 25.7525 19.7017 25.5309 18.0217 25.0875C16.3417 24.6209 14.9184 23.9675 13.7517 23.1275L15.9567 18.7875C16.8901 19.4642 17.9751 20.0009 19.2117 20.3975C20.4484 20.7942 21.6967 20.9925 22.9567 20.9925C24.3801 20.9925 25.5001 20.7125 26.3167 20.1525C27.1334 19.5925 27.5417 18.8225 27.5417 17.8425C27.5417 16.9092 27.1801 16.1742 26.4567 15.6375C25.7334 15.1009 24.5667 14.8325 22.9567 14.8325H20.3667V11.0875L27.1917 3.35252L27.8217 5.38252H14.9767V0.832518H32.1267V4.50752L25.3367 12.2425L22.4667 10.5975H24.1117C27.1217 10.5975 29.3967 11.2742 30.9367 12.6275C32.4767 13.9809 33.2467 15.7192 33.2467 17.8425C33.2467 19.2192 32.8851 20.5142 32.1617 21.7275C31.4384 22.9175 30.3301 23.8859 28.8367 24.6325C27.3434 25.3792 25.4301 25.7525 23.0967 25.7525ZM43.8528 25.7525C42.1495 25.7525 40.4578 25.5309 38.7778 25.0875C37.1212 24.6209 35.6978 23.9675 34.5078 23.1275L36.7478 18.7875C37.6812 19.4642 38.7545 20.0009 39.9678 20.3975C41.2045 20.7942 42.4528 20.9925 43.7128 20.9925C45.1362 20.9925 46.2562 20.7125 47.0728 20.1525C47.8895 19.5925 48.2978 18.8109 48.2978 17.8075C48.2978 17.1775 48.1345 16.6175 47.8078 16.1275C47.4812 15.6375 46.8978 15.2642 46.0578 15.0075C45.2412 14.7509 44.0862 14.6225 42.5928 14.6225H36.3278L37.5878 0.832518H52.5328V5.38252H39.6178L42.5578 2.79252L41.6828 12.6275L38.7428 10.0375H43.9228C46.3495 10.0375 48.2978 10.3759 49.7678 11.0525C51.2612 11.7059 52.3462 12.6042 53.0228 13.7475C53.6995 14.8909 54.0378 16.1859 54.0378 17.6325C54.0378 19.0792 53.6762 20.4209 52.9528 21.6575C52.2295 22.8709 51.1095 23.8625 49.5928 24.6325C48.0995 25.3792 46.1862 25.7525 43.8528 25.7525ZM76.7504 25.6125C74.6037 25.6125 72.7137 25.1925 71.0804 24.3525C69.4704 23.5125 68.222 22.3692 67.3354 20.9225C66.4487 19.4525 66.0054 17.7842 66.0054 15.9175C66.0054 14.0275 66.437 12.3592 67.3004 10.9125C68.187 9.44252 69.3887 8.29919 70.9054 7.48252C72.422 6.64252 74.137 6.22252 76.0504 6.22252C77.8937 6.22252 79.5504 6.61919 81.0204 7.41252C82.5137 8.18252 83.692 9.30252 84.5554 10.7725C85.4187 12.2192 85.8504 13.9575 85.8504 15.9875C85.8504 16.1975 85.8387 16.4425 85.8154 16.7225C85.792 16.9792 85.7687 17.2242 85.7454 17.4575H70.4504V14.2725H82.8754L80.7754 15.2175C80.7754 14.2375 80.577 13.3859 80.1804 12.6625C79.7837 11.9392 79.2354 11.3792 78.5354 10.9825C77.8354 10.5625 77.0187 10.3525 76.0854 10.3525C75.152 10.3525 74.3237 10.5625 73.6004 10.9825C72.9004 11.3792 72.352 11.9509 71.9554 12.6975C71.5587 13.4209 71.3604 14.2842 71.3604 15.2875V16.1275C71.3604 17.1542 71.582 18.0642 72.0254 18.8575C72.492 19.6275 73.1337 20.2225 73.9504 20.6425C74.7904 21.0392 75.7704 21.2375 76.8904 21.2375C77.8937 21.2375 78.7687 21.0859 79.5154 20.7825C80.2854 20.4792 80.9854 20.0242 81.6154 19.4175L84.5204 22.5675C83.657 23.5475 82.572 24.3059 81.2654 24.8425C79.9587 25.3559 78.4537 25.6125 76.7504 25.6125ZM97.4304 25.6125C95.8671 25.6125 94.4671 25.3092 93.2304 24.7025C92.0171 24.0959 91.0721 23.1742 90.3954 21.9375C89.7188 20.6775 89.3804 19.0792 89.3804 17.1425V6.50252H94.8404V16.3375C94.8404 17.9009 95.1671 19.0559 95.8204 19.8025C96.4971 20.5259 97.4421 20.8875 98.6554 20.8875C99.4954 20.8875 100.242 20.7125 100.895 20.3625C101.549 19.9892 102.062 19.4292 102.435 18.6825C102.809 17.9125 102.995 16.9559 102.995 15.8125V6.50252H108.455V25.3325H103.275V20.1525L104.22 21.6575C103.59 22.9642 102.657 23.9559 101.42 24.6325C100.207 25.2859 98.8771 25.6125 97.4304 25.6125ZM113.514 25.3325V6.50252H118.729V11.8225L117.994 10.2825C118.554 8.95252 119.452 7.94919 120.689 7.27252C121.925 6.57252 123.43 6.22252 125.204 6.22252V11.2625C124.97 11.2392 124.76 11.2275 124.574 11.2275C124.387 11.2042 124.189 11.1925 123.979 11.1925C122.485 11.1925 121.272 11.6242 120.339 12.4875C119.429 13.3275 118.974 14.6459 118.974 16.4425V25.3325H113.514Z" fill="url(#paint0_linear_2_281)"/>
<defs>
<linearGradient id="paint0_linear_2_281" x1="-17.6946" y1="-17.9658" x2="173.258" y2="144.268" gradientUnits="userSpaceOnUse">
<stop stop-color="#237CBC"/>
<stop offset="1" stop-color="#610084"/>
</linearGradient>
</defs>
</svg>
