<svg width="103" height="103" viewBox="0 0 103 103" fill="none" xmlns="http://www.w3.org/2000/svg">
<g filter="url(#filter0_d_2_153)">
<rect x="13" y="8" width="77" height="77" rx="21" fill="#F2F6F9"/>
<rect x="15.5" y="10.5" width="72" height="72" rx="18.5" stroke="white" stroke-width="5"/>
</g>
<path d="M45.5401 46.51C49.5369 46.51 52.7964 44.0556 52.7964 41.0486C52.7964 38.0413 49.5466 35.5869 45.5401 35.5869C41.5336 35.5869 38.2838 38.0413 38.2838 41.0486C38.2838 44.0556 41.5433 46.51 45.5401 46.51ZM45.5401 37.5268C48.4502 37.5268 50.8562 39.1374 50.8562 41.0483C50.8562 42.9595 48.4211 44.5697 45.5401 44.5697C42.6588 44.5697 40.2237 42.9595 40.2237 41.0483C40.2237 39.1374 42.6588 37.5172 45.5401 37.5172V37.5268Z" fill="url(#paint0_linear_2_153)"/>
<path d="M76.3016 51.1375H61.983V41.0385C61.983 34.4032 54.6008 29 45.4917 29C36.3823 29 29 34.4032 29 41.0385V52.9708C29 59.0823 35.2571 64.1267 43.3186 64.8931H43.4836C44.1527 64.9516 44.8319 65 45.5207 65H76.3016C76.8372 65 77.2717 64.5654 77.2717 64.0299V52.1072C77.2717 51.572 76.8372 51.1375 76.3016 51.1375ZM45.5401 30.9496C53.5431 30.9496 60.0915 35.4799 60.0915 41.0486C60.0915 46.6168 53.5822 51.1471 45.5401 51.1471C37.4981 51.1471 30.9887 46.6168 30.9887 41.0482C30.9887 35.4799 37.5465 30.9496 45.5401 30.9496ZM60.0915 46.704V51.1375H54.4648C56.6611 50.1421 58.5771 48.619 60.0427 46.704H60.0915ZM75.3314 63.0597H73.3912V58.1509C73.3912 57.6157 72.9566 57.1808 72.4214 57.1808C71.8858 57.1808 71.4512 57.6153 71.4512 58.1509V63.0694H67.5707V60.4015C67.5707 59.8659 67.1361 59.4314 66.6005 59.4314C66.0649 59.4314 65.6304 59.8659 65.6304 60.4015V63.0694H61.7502V60.4015C61.7502 59.8659 61.3156 59.4314 60.78 59.4314C60.2444 59.4314 59.8099 59.8659 59.8099 60.4015V63.0694H55.9293V58.1509C55.9293 57.6157 55.4948 57.1808 54.9592 57.1808C54.424 57.1808 53.9891 57.6153 53.9891 58.1509V63.0694H50.2739V60.4015C50.2739 59.8659 49.839 59.4314 49.3037 59.4314C48.7682 59.4314 48.3336 59.8659 48.3336 60.4015V63.0694H45.5394C45.171 63.0694 44.8122 63.0694 44.453 63.0694V60.4015C44.453 59.8659 44.0185 59.4314 43.4829 59.4314C42.9473 59.4314 42.5128 59.8659 42.5128 60.4015V62.8366C35.9654 61.8664 31.0372 57.8115 31.0372 52.9611V46.704C33.8116 50.497 39.2733 53.0774 45.5886 53.0774H75.3314V63.0597Z" fill="url(#paint1_linear_2_153)"/>
<defs>
<filter id="filter0_d_2_153" x="0" y="0" width="103" height="103" filterUnits="userSpaceOnUse" color-interpolation-filters="sRGB">
<feFlood flood-opacity="0" result="BackgroundImageFix"/>
<feColorMatrix in="SourceAlpha" type="matrix" values="0 0 0 0 0 0 0 0 0 0 0 0 0 0 0 0 0 0 127 0" result="hardAlpha"/>
<feOffset dy="5"/>
<feGaussianBlur stdDeviation="6.5"/>
<feColorMatrix type="matrix" values="0 0 0 0 0.400139 0 0 0 0 0.491892 0 0 0 0 0.558333 0 0 0 0.35 0"/>
<feBlend mode="normal" in2="BackgroundImageFix" result="effect1_dropShadow_2_153"/>
<feBlend mode="normal" in="SourceGraphic" in2="effect1_dropShadow_2_153" result="shape"/>
</filter>
<linearGradient id="paint0_linear_2_153" x1="69.0714" y1="64.3572" x2="36.0714" y2="33.5001" gradientUnits="userSpaceOnUse">
<stop stop-color="#610084"/>
<stop offset="1" stop-color="#237CBC"/>
</linearGradient>
<linearGradient id="paint1_linear_2_153" x1="87.9286" y1="74.4286" x2="27.2857" y2="29" gradientUnits="userSpaceOnUse">
<stop stop-color="#610084"/>
<stop offset="1" stop-color="#237CBC"/>
</linearGradient>
</defs>
</svg>
