<svg width="103" height="103" viewBox="0 0 103 103" fill="none" xmlns="http://www.w3.org/2000/svg">
<g filter="url(#filter0_d_2_159)">
<rect x="13" y="8" width="77" height="77" rx="21" fill="#F2F6F9"/>
<rect x="15.5" y="10.5" width="72" height="72" rx="18.5" stroke="white" stroke-width="5"/>
</g>
<path fill-rule="evenodd" clip-rule="evenodd" d="M63.6789 26.3604C63.4482 26.1297 63.1352 26 62.8089 26C62.4826 26 62.1695 26.1297 61.9389 26.3604L57.0286 31.2706C55.6567 30.6171 53.9621 30.8567 52.8279 31.991L47.6074 37.2115C47.1269 37.692 47.1269 38.4711 47.6074 38.9516L58.0483 49.3925C58.5287 49.873 59.3079 49.8731 59.7884 49.3925L65.0089 44.172C66.1671 43.0139 66.3741 41.3135 65.7309 39.9697L70.6395 35.0611C71.1201 34.5806 71.1201 33.8015 70.6395 33.321L63.6789 26.3604ZM63.2688 42.4319L58.9184 46.7823L50.2177 38.0815L54.568 33.7311C55.0477 33.2515 55.8284 33.2513 56.3082 33.7311L63.2688 40.6918C63.7497 41.1727 63.7497 41.9509 63.2688 42.4319ZM64.1389 38.0816L58.9184 32.8611L62.8089 28.9707L68.0294 34.1912L64.1389 38.0816ZM49.7608 26.3635C49.2821 25.8813 48.503 25.8784 48.0207 26.3573L44.9139 29.4421V28.9531C44.9139 28.2736 44.363 27.7227 43.6834 27.7227C43.0039 27.7227 42.453 28.2736 42.453 28.9531V32.4805C42.453 33.16 43.0039 33.711 43.6834 33.711H47.1288C47.8083 33.711 48.3592 33.16 48.3592 32.4805C48.3592 31.8009 47.8083 31.25 47.1288 31.25H46.5858L49.7546 28.1036C50.2369 27.6248 50.2396 26.8458 49.7608 26.3635ZM52.8288 61.5745C53.3084 62.053 54.0875 62.0552 54.569 61.5727L57.7109 58.4241V58.9766C57.7109 59.6562 58.2618 60.2071 58.9414 60.2071C59.6209 60.2071 60.1718 59.6562 60.1718 58.9766V55.4493C60.1718 54.7697 59.6209 54.2188 58.9414 54.2188H55.414C54.7345 54.2188 54.1835 54.7697 54.1835 55.4493C54.1835 56.1288 54.7345 56.6797 55.414 56.6797H55.9749L52.827 59.8343C52.3469 60.3153 52.3478 61.0944 52.8288 61.5745ZM38.061 67.6397C37.5806 68.1201 36.8012 68.12 36.3209 67.6397L29.3603 60.6791C28.8798 60.1986 28.88 59.4192 29.3603 58.9389L34.2958 54.0035C33.6422 52.6316 33.8819 50.937 35.0162 49.8028L36.7563 48.0626C37.2368 47.5821 38.0159 47.5822 38.4964 48.0626L39.3665 48.9328L42.3869 45.9124C42.8675 45.4318 43.6465 45.4319 44.1271 45.9124C44.6069 46.3921 45.3875 46.3922 45.8673 45.9124L47.6074 44.1722C48.088 43.6917 48.8671 43.6917 49.3476 44.1722L52.8279 47.6525C53.3084 48.1329 53.3081 48.9124 52.8279 49.3926L51.0878 51.1328C50.6067 51.6137 50.607 52.3921 51.0878 52.8729C51.5682 53.3533 51.5681 54.1327 51.0878 54.613L48.0678 57.633L48.9381 58.5033C49.4187 58.9837 49.4184 59.7634 48.9381 60.2436L47.1972 61.9839C46.0608 63.1201 44.3673 63.3572 42.9965 62.7041L38.061 67.6397ZM47.6074 47.6523C46.4732 48.7867 44.7782 49.0271 43.4061 48.3733L41.1068 50.6726L46.3275 55.8929L48.6266 53.5938C47.9728 52.2218 48.2131 50.5268 49.3476 49.3925L50.2176 48.5224L48.4774 46.7823L47.6074 47.6523ZM37.6265 50.6727L36.7564 51.5427C36.2766 52.0225 36.2766 52.8032 36.7563 53.283L43.7169 60.2436C44.1967 60.7234 44.9773 60.7234 45.4571 60.2436L46.3277 59.3732L37.6265 50.6727ZM41.1068 61.1136L35.8864 55.8931L31.9705 59.809L37.191 65.0294L41.1068 61.1136ZM54.568 37.2115C55.0486 36.7309 55.8277 36.7309 56.3082 37.2115L59.7885 40.6917C60.269 41.1723 60.269 41.9513 59.7885 42.4319C59.308 42.9125 58.5288 42.9124 58.0484 42.4319L54.568 38.9516C54.0875 38.4711 54.0875 37.692 54.568 37.2115Z" fill="url(#paint0_linear_2_159)"/>
<defs>
<filter id="filter0_d_2_159" x="0" y="0" width="103" height="103" filterUnits="userSpaceOnUse" color-interpolation-filters="sRGB">
<feFlood flood-opacity="0" result="BackgroundImageFix"/>
<feColorMatrix in="SourceAlpha" type="matrix" values="0 0 0 0 0 0 0 0 0 0 0 0 0 0 0 0 0 0 127 0" result="hardAlpha"/>
<feOffset dy="5"/>
<feGaussianBlur stdDeviation="6.5"/>
<feColorMatrix type="matrix" values="0 0 0 0 0.400139 0 0 0 0 0.491892 0 0 0 0 0.558333 0 0 0 0.35 0"/>
<feBlend mode="normal" in2="BackgroundImageFix" result="effect1_dropShadow_2_159"/>
<feBlend mode="normal" in="SourceGraphic" in2="effect1_dropShadow_2_159" result="shape"/>
</filter>
<linearGradient id="paint0_linear_2_159" x1="77.5001" y1="72.25" x2="34.0001" y2="29.75" gradientUnits="userSpaceOnUse">
<stop stop-color="#610084"/>
<stop offset="1" stop-color="#237CBC"/>
</linearGradient>
</defs>
</svg>
