<svg width="103" height="103" viewBox="0 0 103 103" fill="none" xmlns="http://www.w3.org/2000/svg">
<g filter="url(#filter0_d_2_167)">
<rect x="13" y="8" width="77" height="77" rx="21" fill="#F2F6F9"/>
<rect x="15.5" y="10.5" width="72" height="72" rx="18.5" stroke="white" stroke-width="5"/>
</g>
<path fill-rule="evenodd" clip-rule="evenodd" d="M36.5625 40.125H64.6875C65.7337 40.125 66.7144 40.4587 67.5244 41.0906C67.9331 41.4075 68.5219 41.3344 68.8406 40.9275C69.1594 40.5188 69.0862 39.93 68.6775 39.6112C68.4802 39.4574 68.2758 39.316 68.065 39.1875C69.972 38.0382 71.25 35.9469 71.25 33.5625C71.25 29.9437 68.3063 27 64.6875 27H36.5625C32.9438 27 30 29.9437 30 33.5625C30 35.9459 31.277 38.0365 33.1827 39.1861C32.7302 39.4594 32.3076 39.7899 31.9237 40.1737C30.6825 41.415 30 43.0612 30 44.8125C30 47.1959 31.277 49.2865 33.1827 50.4361C32.7302 50.7094 32.3076 51.0399 31.9237 51.4237C30.6825 52.665 30 54.3112 30 56.0625C30 59.6812 32.9437 62.625 36.5625 62.625H47.8125C48.33 62.625 48.75 62.205 48.75 61.6875C48.75 61.17 48.33 60.75 47.8125 60.75H36.5625C33.9769 60.75 31.875 58.6481 31.875 56.0625C31.875 54.8137 32.3625 53.6344 33.2494 52.7494C34.1362 51.8644 35.3137 51.375 36.5625 51.375H47.8125C48.33 51.375 48.75 50.955 48.75 50.4375C48.75 49.92 48.33 49.5 47.8125 49.5H36.5625C33.9769 49.5 31.875 47.3981 31.875 44.8125C31.875 43.5637 32.3625 42.3844 33.2494 41.4994C34.1363 40.6144 35.3137 40.125 36.5625 40.125ZM64.6875 38.25H36.5625C33.9769 38.25 31.875 36.1481 31.875 33.5625C31.875 30.9769 33.9769 28.875 36.5625 28.875H64.6875C67.2731 28.875 69.375 30.9769 69.375 33.5625C69.375 36.1481 67.2731 38.25 64.6875 38.25ZM63.75 70.125C63.6262 70.125 63.5025 70.1006 63.3862 70.0518C62.94 69.8624 52.5 65.3512 52.5 56.1299V48.2943C52.5 47.8912 52.7569 47.535 53.1375 47.4056L63.45 43.9237C63.645 43.8581 63.8569 43.8581 64.05 43.9237L74.3625 47.4056C74.7431 47.5331 75 47.8912 75 48.2943V56.1299C75 65.3512 64.56 69.8624 64.1137 70.0518C63.9975 70.1006 63.8737 70.125 63.75 70.125ZM54.375 48.9693V56.1299C54.375 63.2249 61.9781 67.3012 63.75 68.1543C65.52 67.2993 73.125 63.2062 73.125 56.1299V48.9693L63.75 45.8025L54.375 48.9693ZM62.8125 60.75C62.7956 60.75 62.7769 60.75 62.7619 60.7481C62.4938 60.7331 62.2481 60.6074 62.0813 60.3974L58.3313 55.7099C58.0088 55.305 58.0725 54.7162 58.4775 54.3918C58.8844 54.0731 59.4713 54.1368 59.7956 54.5381L62.8894 58.4062L68.7113 52.5862C69.0769 52.2206 69.6713 52.2206 70.0369 52.5862C70.4025 52.9518 70.4025 53.5462 70.0369 53.9118L63.4744 60.4743C63.3 60.6506 63.06 60.75 62.8125 60.75ZM38.4375 36.3749C36.8869 36.3749 35.625 35.1131 35.625 33.5624C35.625 32.0118 36.8869 30.7499 38.4375 30.7499C39.9881 30.7499 41.25 32.0118 41.25 33.5624C41.25 35.1131 39.9881 36.3749 38.4375 36.3749ZM38.4375 32.6249C37.9219 32.6249 37.5 33.0468 37.5 33.5624C37.5 34.0781 37.9219 34.4999 38.4375 34.4999C38.9531 34.4999 39.375 34.0781 39.375 33.5624C39.375 33.0468 38.9531 32.6249 38.4375 32.6249ZM45 33.5624C45 35.1131 46.2619 36.3749 47.8125 36.3749C49.3631 36.3749 50.625 35.1131 50.625 33.5624C50.625 32.0118 49.3631 30.7499 47.8125 30.7499C46.2619 30.7499 45 32.0118 45 33.5624ZM46.875 33.5624C46.875 33.0468 47.2969 32.6249 47.8125 32.6249C48.3281 32.6249 48.75 33.0468 48.75 33.5624C48.75 34.0781 48.3281 34.4999 47.8125 34.4999C47.2969 34.4999 46.875 34.0781 46.875 33.5624ZM35.625 44.8124C35.625 46.3631 36.8869 47.6249 38.4375 47.6249C39.9881 47.6249 41.25 46.3631 41.25 44.8124C41.25 43.2618 39.9881 41.9999 38.4375 41.9999C36.8869 41.9999 35.625 43.2618 35.625 44.8124ZM37.5 44.8124C37.5 44.2968 37.9219 43.8749 38.4375 43.8749C38.9531 43.8749 39.375 44.2968 39.375 44.8124C39.375 45.3281 38.9531 45.7499 38.4375 45.7499C37.9219 45.7499 37.5 45.3281 37.5 44.8124ZM47.8125 47.6249C46.2619 47.6249 45 46.3631 45 44.8124C45 43.2618 46.2619 41.9999 47.8125 41.9999C49.3631 41.9999 50.625 43.2618 50.625 44.8124C50.625 46.3631 49.3631 47.6249 47.8125 47.6249ZM47.8125 43.8749C47.2969 43.8749 46.875 44.2968 46.875 44.8124C46.875 45.3281 47.2969 45.7499 47.8125 45.7499C48.3281 45.7499 48.75 45.3281 48.75 44.8124C48.75 44.2968 48.3281 43.8749 47.8125 43.8749ZM38.4375 58.8749C36.8869 58.8749 35.625 57.6131 35.625 56.0624C35.625 54.5118 36.8869 53.2499 38.4375 53.2499C39.9881 53.2499 41.25 54.5118 41.25 56.0624C41.25 57.6131 39.9881 58.8749 38.4375 58.8749ZM38.4375 55.1249C37.9219 55.1249 37.5 55.5468 37.5 56.0624C37.5 56.5781 37.9219 56.9999 38.4375 56.9999C38.9531 56.9999 39.375 56.5781 39.375 56.0624C39.375 55.5468 38.9531 55.1249 38.4375 55.1249ZM45 56.0624C45 57.6131 46.2619 58.8749 47.8125 58.8749C49.3631 58.8749 50.625 57.6131 50.625 56.0624C50.625 54.5118 49.3631 53.2499 47.8125 53.2499C46.2619 53.2499 45 54.5118 45 56.0624ZM46.875 56.0624C46.875 55.5468 47.2969 55.1249 47.8125 55.1249C48.3281 55.1249 48.75 55.5468 48.75 56.0624C48.75 56.5781 48.3281 56.9999 47.8125 56.9999C47.2969 56.9999 46.875 56.5781 46.875 56.0624Z" fill="url(#paint0_linear_2_167)"/>
<defs>
<filter id="filter0_d_2_167" x="0" y="0" width="103" height="103" filterUnits="userSpaceOnUse" color-interpolation-filters="sRGB">
<feFlood flood-opacity="0" result="BackgroundImageFix"/>
<feColorMatrix in="SourceAlpha" type="matrix" values="0 0 0 0 0 0 0 0 0 0 0 0 0 0 0 0 0 0 127 0" result="hardAlpha"/>
<feOffset dy="5"/>
<feGaussianBlur stdDeviation="6.5"/>
<feColorMatrix type="matrix" values="0 0 0 0 0.400139 0 0 0 0 0.491892 0 0 0 0 0.558333 0 0 0 0.35 0"/>
<feBlend mode="normal" in2="BackgroundImageFix" result="effect1_dropShadow_2_167"/>
<feBlend mode="normal" in="SourceGraphic" in2="effect1_dropShadow_2_167" result="shape"/>
</filter>
<linearGradient id="paint0_linear_2_167" x1="86.0789" y1="75.7001" x2="25.3268" y2="20.8509" gradientUnits="userSpaceOnUse">
<stop stop-color="#610084"/>
<stop offset="1" stop-color="#237CBC"/>
</linearGradient>
</defs>
</svg>
