<svg width="24" height="23" viewBox="0 0 24 23" fill="none" xmlns="http://www.w3.org/2000/svg">
<path d="M12.2821 5.37061C8.95195 5.37061 6.24268 8.07988 6.24268 11.41C6.24268 14.7401 8.95195 17.4494 12.2821 17.4494C15.6122 17.4494 18.3215 14.7401 18.3215 11.41C18.3215 8.07988 15.6122 5.37061 12.2821 5.37061ZM12.2821 16.1123C9.68929 16.1123 7.57981 14.0028 7.57981 11.41C7.57981 8.81722 9.68929 6.70774 12.2821 6.70774C14.875 6.70774 16.9843 8.81722 16.9843 11.41C16.9843 14.0028 14.875 16.1123 12.2821 16.1123Z" fill="black"/>
<path d="M21.3929 2.29942C19.9102 0.816559 17.9461 0 15.8627 0H8.70139C6.61803 0 4.65394 0.816559 3.17125 2.29942C1.68839 3.78211 0.871826 5.74621 0.871826 7.82957V14.9907C0.871826 17.0743 1.68839 19.0384 3.17125 20.5211C4.65394 22.0039 6.61803 22.8205 8.70139 22.8205H15.8627C17.9461 22.8205 19.9102 22.0039 21.3929 20.5211C22.8757 19.0384 23.6923 17.0743 23.6923 14.9907V7.82957C23.6923 5.74621 22.8757 3.78211 21.3929 2.29942V2.29942ZM22.3552 14.9907C22.3552 18.5707 19.4425 21.4833 15.8627 21.4833H8.70139C5.12159 21.4833 2.20896 18.5707 2.20896 14.9907V7.82957C2.20896 4.24976 5.12159 1.33714 8.70139 1.33714H15.8627C19.4425 1.33714 22.3552 4.24976 22.3552 7.82957V14.9907Z" fill="black"/>
<path d="M18.5002 4.52344C18.324 4.52344 18.1517 4.59517 18.0272 4.71966C17.9029 4.84397 17.8317 5.01651 17.8317 5.19201C17.8317 5.36803 17.9029 5.54057 18.0272 5.66488C18.1517 5.78937 18.324 5.86057 18.5002 5.86057C18.6757 5.86057 18.8483 5.78937 18.9726 5.66488C19.0969 5.54057 19.1688 5.36803 19.1688 5.19201C19.1688 5.01651 19.0969 4.84397 18.9726 4.71966C18.8483 4.59534 18.6757 4.52344 18.5002 4.52344V4.52344Z" fill="black"/>
</svg>
