<svg width="1170" height="180" viewBox="0 0 1170 180" fill="none" xmlns="http://www.w3.org/2000/svg">
<path d="M58.8477 84.5508H22.2266L22.0312 62.0898H51.7188C57.0573 62.0898 61.3216 61.5039 64.5117 60.332C67.7018 59.0951 70.013 57.3047 71.4453 54.9609C72.9427 52.6172 73.6914 49.6875 73.6914 46.1719C73.6914 42.1354 72.9427 38.8802 71.4453 36.4062C69.9479 33.9323 67.5716 32.1419 64.3164 31.0352C61.1263 29.8633 56.9922 29.2773 51.9141 29.2773H35.1172V145H0.839844V2.8125H51.9141C60.7031 2.8125 68.5482 3.6263 75.4492 5.25391C82.3503 6.81641 88.2096 9.22526 93.0273 12.4805C97.9102 15.7357 101.621 19.8372 104.16 24.7852C106.699 29.668 107.969 35.4297 107.969 42.0703C107.969 47.8646 106.732 53.3008 104.258 58.3789C101.784 63.457 97.6497 67.5911 91.8555 70.7812C86.1263 73.9062 78.2812 75.5339 68.3203 75.6641L58.8477 84.5508ZM57.4805 145H13.9258L25.6445 118.633H57.4805C62.168 118.633 65.9115 117.917 68.7109 116.484C71.5755 114.987 73.6263 113.034 74.8633 110.625C76.1654 108.151 76.8164 105.417 76.8164 102.422C76.8164 98.776 76.1979 95.6185 74.9609 92.9492C73.7891 90.2799 71.901 88.2292 69.2969 86.7969C66.6927 85.2995 63.2096 84.5508 58.8477 84.5508H30.0391L30.2344 62.0898H64.707L72.7148 71.0742C82.2201 70.6836 89.7396 72.0182 95.2734 75.0781C100.872 78.138 104.876 82.1745 107.285 87.1875C109.694 92.2005 110.898 97.4414 110.898 102.91C110.898 112.22 108.88 120 104.844 126.25C100.872 132.5 94.9154 137.188 86.9727 140.312C79.0299 143.438 69.1992 145 57.4805 145ZM187.23 51.7383H217.797C229.32 51.7383 239.346 53.6589 247.875 57.5C256.404 61.3411 262.979 66.7122 267.602 73.6133C272.289 80.5143 274.633 88.5872 274.633 97.832C274.633 104.798 273.298 111.178 270.629 116.973C267.96 122.702 264.118 127.682 259.105 131.914C254.158 136.081 248.201 139.303 241.234 141.582C234.268 143.861 226.456 145 217.797 145H165.844V2.8125H200.219V118.633H217.797C222.68 118.633 226.781 117.689 230.102 115.801C233.487 113.913 236.059 111.406 237.816 108.281C239.574 105.091 240.453 101.543 240.453 97.6367C240.453 93.8607 239.574 90.5078 237.816 87.5781C236.059 84.6484 233.487 82.3372 230.102 80.6445C226.781 78.9518 222.68 78.1055 217.797 78.1055H187.23V51.7383ZM319.164 2.8125V145H284.984V2.8125H319.164ZM472.156 2.8125V29.2773H410.34V145H376.16V2.8125H472.156ZM637.551 71.0742V76.8359C637.551 87.7083 636.021 97.474 632.961 106.133C629.966 114.727 625.702 122.083 620.168 128.203C614.634 134.258 608.091 138.913 600.539 142.168C592.987 145.358 584.654 146.953 575.539 146.953C566.359 146.953 557.961 145.358 550.344 142.168C542.792 138.913 536.216 134.258 530.617 128.203C525.083 122.083 520.786 114.727 517.727 106.133C514.732 97.474 513.234 87.7083 513.234 76.8359V71.0742C513.234 60.2018 514.732 50.4362 517.727 41.7773C520.786 33.1185 525.051 25.7617 530.52 19.707C536.053 13.5872 542.596 8.93229 550.148 5.74219C557.766 2.48698 566.164 0.859375 575.344 0.859375C584.458 0.859375 592.792 2.48698 600.344 5.74219C607.961 8.93229 614.536 13.5872 620.07 19.707C625.604 25.7617 629.901 33.1185 632.961 41.7773C636.021 50.4362 637.551 60.2018 637.551 71.0742ZM602.785 76.8359V70.8789C602.785 63.8477 602.167 57.6628 600.93 52.3242C599.758 46.9206 598 42.3958 595.656 38.75C593.312 35.1042 590.415 32.3698 586.965 30.5469C583.579 28.6589 579.706 27.7148 575.344 27.7148C570.786 27.7148 566.815 28.6589 563.43 30.5469C560.044 32.3698 557.212 35.1042 554.934 38.75C552.655 42.3958 550.93 46.9206 549.758 52.3242C548.651 57.6628 548.098 63.8477 548.098 70.8789V76.8359C548.098 83.8021 548.651 89.987 549.758 95.3906C550.93 100.729 552.655 105.254 554.934 108.965C557.277 112.676 560.142 115.475 563.527 117.363C566.978 119.251 570.982 120.195 575.539 120.195C579.901 120.195 583.775 119.251 587.16 117.363C590.546 115.475 593.378 112.676 595.656 108.965C598 105.254 599.758 100.729 600.93 95.3906C602.167 89.987 602.785 83.8021 602.785 76.8359ZM801.285 118.633V145H701.383V118.633H801.285ZM712.711 118.633V179.863H680.973L678.629 118.633H712.711ZM824.625 118.633L821.012 179.961H790.25V118.633H824.625ZM786.344 2.8125V29.2773H714.957V2.8125H786.344ZM809.391 2.8125V145H775.309V2.8125H809.391ZM712.711 2.8125H746.891L742.691 61.1133C741.975 71.0742 740.836 79.7331 739.273 87.0898C737.711 94.4466 735.855 100.794 733.707 106.133C731.559 111.471 729.215 116.061 726.676 119.902C724.137 123.743 721.467 127.096 718.668 129.961C715.934 132.826 713.199 135.43 710.465 137.773C707.73 140.117 705.094 142.526 702.555 145H681.754V118.633H688.59C690.608 117.201 692.626 115.28 694.645 112.871C696.728 110.397 698.681 107.044 700.504 102.812C702.327 98.5807 703.922 93.0794 705.289 86.3086C706.656 79.5378 707.698 71.1393 708.414 61.1133L712.711 2.8125ZM968.242 59.2578V85.625H895.293V59.2578H968.242ZM906.719 2.8125V145H872.441V2.8125H906.719ZM991.289 2.8125V145H957.109V2.8125H991.289ZM1169.38 71.0742V76.8359C1169.38 87.7083 1167.85 97.474 1164.79 106.133C1161.79 114.727 1157.53 122.083 1152 128.203C1146.46 134.258 1139.92 138.913 1132.37 142.168C1124.82 145.358 1116.48 146.953 1107.37 146.953C1098.19 146.953 1089.79 145.358 1082.17 142.168C1074.62 138.913 1068.04 134.258 1062.45 128.203C1056.91 122.083 1052.61 114.727 1049.55 106.133C1046.56 97.474 1045.06 87.7083 1045.06 76.8359V71.0742C1045.06 60.2018 1046.56 50.4362 1049.55 41.7773C1052.61 33.1185 1056.88 25.7617 1062.35 19.707C1067.88 13.5872 1074.42 8.93229 1081.98 5.74219C1089.59 2.48698 1097.99 0.859375 1107.17 0.859375C1116.29 0.859375 1124.62 2.48698 1132.17 5.74219C1139.79 8.93229 1146.36 13.5872 1151.9 19.707C1157.43 25.7617 1161.73 33.1185 1164.79 41.7773C1167.85 50.4362 1169.38 60.2018 1169.38 71.0742ZM1134.61 76.8359V70.8789C1134.61 63.8477 1133.99 57.6628 1132.76 52.3242C1131.59 46.9206 1129.83 42.3958 1127.48 38.75C1125.14 35.1042 1122.24 32.3698 1118.79 30.5469C1115.41 28.6589 1111.53 27.7148 1107.17 27.7148C1102.61 27.7148 1098.64 28.6589 1095.26 30.5469C1091.87 32.3698 1089.04 35.1042 1086.76 38.75C1084.48 42.3958 1082.76 46.9206 1081.59 52.3242C1080.48 57.6628 1079.93 63.8477 1079.93 70.8789V76.8359C1079.93 83.8021 1080.48 89.987 1081.59 95.3906C1082.76 100.729 1084.48 105.254 1086.76 108.965C1089.11 112.676 1091.97 115.475 1095.36 117.363C1098.81 119.251 1102.81 120.195 1107.37 120.195C1111.73 120.195 1115.6 119.251 1118.99 117.363C1122.37 115.475 1125.21 112.676 1127.48 108.965C1129.83 105.254 1131.59 100.729 1132.76 95.3906C1133.99 89.987 1134.61 83.8021 1134.61 76.8359Z" fill="#237CBC" fill-opacity="0.04"/>
</svg>
